<svg id="Capa_1" data-name="Capa 1" xmlns="http://www.w3.org/2000/svg" viewBox="0 0 953.79 287.07"><defs><style>.cls-1,.cls-3{fill:#282640;}.cls-2,.cls-4{fill:#eccf00;}.cls-3,.cls-4{fill-rule:evenodd;}</style></defs><title>GL</title><path class="cls-1" d="M486,249.89c10.37,0,13.81,5.09,13.81,12.74V302a119.11,119.11,0,0,1-38.63,6.32c-30.83,0-44.05-22.4-44.05-52.77,0-37.3,22.93-54.14,45.86-54.14a67,67,0,0,1,36.54,10.82A22.11,22.11,0,0,1,490.18,227,46,46,0,0,0,464,218.42c-15.28,0-26.16,10.52-26.16,37.3,0,24.79,9.47,36.39,26.93,36.39a69.92,69.92,0,0,0,15.92-1.81V276.92c0-3.31,0-6.62.31-9.94H470.82c-6.63,0-9.63-2.39-9.63-8.56a26.35,26.35,0,0,1,1.5-8.43Z" transform="translate(-116.2 -120.02)"/><path class="cls-1" d="M533.88,275.32c.61,10.19,3.92,17.83,15.29,17.83a49.44,49.44,0,0,0,20.38-5.1,22.88,22.88,0,0,1,5.55,11.88,50.91,50.91,0,0,1-28.87,8.58c-25.24,0-32.3-18.95-32.3-39.08,0-22.55,10.06-39.7,32.46-39.7,19.69,0,30.57,13.84,30.57,31.88a48.57,48.57,0,0,1-1.65,13.83Zm-.16-13.84h25v-1.81c0-8.71-3.46-15.92-12.33-15.92C538.23,243.75,534.39,250,533.72,261.48Z" transform="translate(-116.2 -120.02)"/><path class="cls-1" d="M592.81,287.49c6.47,3.44,14.42,6.45,20.89,6.45,7.09,0,11-3,11.14-7.21,0-3.62-2.7-6.47-8.13-8.41l-8.41-3.16c-10.52-3.92-18.95-10.19-18.95-22.11,0-14.42,11.44-23.44,28-23.44a68.67,68.67,0,0,1,26.14,5.86A19.84,19.84,0,0,1,638,249.3,52.62,52.62,0,0,0,617.37,244c-5.27,0-8.43,2.85-8.43,6.77,0,3.32,2.42,5.41,7.52,7.37l9.17,3.31c11.29,4.2,19.54,11.26,19.54,23.44,0,14.45-12,23.47-29.61,23.47A59.27,59.27,0,0,1,587,301,23.61,23.61,0,0,1,592.81,287.49Z" transform="translate(-116.2 -120.02)"/><path class="cls-1" d="M700.89,238.47a28.71,28.71,0,0,1-.89,7.21l-18.19-.3v39.54c0,4.36,1.81,6.93,6.47,6.93h9.3a31.28,31.28,0,0,1,1.5,9.45,14.1,14.1,0,0,1-.43,4.39,139.59,139.59,0,0,1-18,1.35c-12,0-18-5.86-18-18.35V245.53l-11.44.15a29.59,29.59,0,0,1-.74-7.21,29.12,29.12,0,0,1,.74-6.9l11.44.15V220.89c0-8.74,2.7-12,10.68-12h7.52l1,.89v22.09l18.19-.28A28.14,28.14,0,0,1,700.89,238.47Z" transform="translate(-116.2 -120.02)"/><path class="cls-1" d="M768.39,307.47a17.83,17.83,0,0,1-14.27-8.56,31.26,31.26,0,0,1-22.27,9.48,21.82,21.82,0,0,1-22.55-21.05q0-.75,0-1.5c0-17.61,13.53-25.48,29.33-25.48,3.46,0,8.13,0,12.74.43v-4.05c0-7.82-3.77-11.44-11.14-11.44-6.9,0-15,2.55-22.93,5.27a26.23,26.23,0,0,1-5.09-14,96.4,96.4,0,0,1,32.94-6.76c13.84,0,25.71,7.37,25.71,25.48v30.81c0,5.09,1,8.74,4.2,11.13A20.91,20.91,0,0,1,768.39,307.47Zm-17.12-20.59V273.81c-3.78-.3-7.83-.46-10.83-.46-7.82,0-11.72,4.36-11.72,11.27a8.18,8.18,0,0,0,7.43,8.86,7.86,7.86,0,0,0,1,0A21,21,0,0,0,751.27,286.88Z" transform="translate(-116.2 -120.02)"/><path class="cls-2" d="M852,296.06a21.22,21.22,0,0,1-.46,5c-.62,3.6-3.32,5.25-7.37,5.25H802.07c-3.62,0-6.62-2.55-6.62-7.64V204.18l.89-.92h4.51c5.09,0,6,2.55,6,7.64v85.87c4.51-.31,9.14-.46,13.07-.46Z" transform="translate(-116.2 -120.02)"/><path class="cls-2" d="M918.87,307.32a13.79,13.79,0,0,1-9.33-10.53c-5.55,5.43-13.68,11.29-23.59,11.29-14.58,0-21.66-11.13-21.66-21.81,0-16.69,11.44-24.2,28-24.2a88.89,88.89,0,0,1,16.53,1.37V255.8c0-11.26-5.27-15.29-13.52-15.29a62,62,0,0,0-24.52,6.17,13.15,13.15,0,0,1-3.92-8.74,78.55,78.55,0,0,1,29.48-7.06c15.64,0,23.31,8.87,23.31,25.1v31c0,6.32.44,11,4.21,14.57A11.69,11.69,0,0,1,918.87,307.32Zm-9.94-20.74v-15a119.6,119.6,0,0,0-16.38-1c-10.4,0-17,5.4-17,15,0,7.21,4.21,13.07,11.88,13.07C894.36,298.6,902.64,294.7,908.93,286.58Z" transform="translate(-116.2 -120.02)"/><path class="cls-2" d="M971.94,307.32a75.58,75.58,0,0,1-26.32-4.79V196.69l.92-.92h4.05c5.1,0,6,2.55,6,7.64v37.15a30.91,30.91,0,0,1,21.2-9.17c17,0,25.71,15.49,25.71,37.28C1003.51,295.9,987.71,307.32,971.94,307.32Zm-15.29-55.78v44.67a39.89,39.89,0,0,0,15.29,2.55c11,0,20.38-9.61,20.38-30.22,0-19.54-7.51-27.52-16.07-27.52a26.23,26.23,0,0,0-19.65,10.52Z" transform="translate(-116.2 -120.02)"/><path class="cls-2" d="M1021,292.44c6.17,3.46,13.68,6.93,21.35,6.93,9.45,0,15.77-4.82,15.93-11.75,0-4.94-3.9-9.45-11-12l-8.4-3.29c-10.37-3.93-19.24-9.94-19.24-20.92,0-12.92,11.41-20.74,25.1-20.74a62.09,62.09,0,0,1,22.93,5.1,13.16,13.16,0,0,1-3.47,8.71,50.83,50.83,0,0,0-19.69-4.66c-7.83,0-13.38,4.35-13.38,11,0,5.09,3.77,8.13,11.29,11l8.86,3.44C1062.47,269.58,1070,276,1070,287c0,13.38-11.59,21.2-27.67,21.2a47.73,47.73,0,0,1-25.47-7.52A12.67,12.67,0,0,1,1021,292.44Z" transform="translate(-116.2 -120.02)"/><g id="Group-3"><path id="Fill-1" class="cls-3" d="M238.24,145.58a9,9,0,0,1-2.55-5.36v-.91a8.91,8.91,0,0,1,2.55-6.25,8.33,8.33,0,0,1,6-2.54h.89a8.29,8.29,0,0,1,5.09,2.54,8.87,8.87,0,0,1,2.35,4.72,9.06,9.06,0,0,1-2.3,7.8,8.35,8.35,0,0,1-11.78.27l-.27-.27m21.61,112.54a9,9,0,0,1,2.39,5.09,8.42,8.42,0,0,1,0,1.23,8.93,8.93,0,0,1-2.54,6.24,8.47,8.47,0,0,1-12,.09l-.09-.09a9,9,0,0,1,0-12.51,8.36,8.36,0,0,1,6-2.55,7.75,7.75,0,0,1,1.18,0,8.37,8.37,0,0,1,4.84,2.55M244.1,158.8a18.42,18.42,0,0,0,13.43-5.58,20,20,0,0,0,0-27.52,18.32,18.32,0,0,0-25.9-.62c-.21.2-.42.41-.62.62a19.72,19.72,0,0,0-5.51,13.76,20.13,20.13,0,0,0,2.32,9.22L116.2,264.41,253.79,407.09,391.37,264.41l-72.49-75-56.05,58.1a18,18,0,0,0-22.35,3.18,20,20,0,0,0,0,27.52,18.28,18.28,0,0,0,25.83.7l.7-.7A19.75,19.75,0,0,0,270.07,255l48.74-50.6,57.84,60-123,127.68L130.67,264.41,234.93,156.2a18.3,18.3,0,0,0,9.33,2.55" transform="translate(-116.2 -120.02)"/></g><path id="Fill-4" class="cls-4" d="M175.28,268.36a9,9,0,0,1,2.4-5.1,8.21,8.21,0,0,1,4.84-2.54,5.72,5.72,0,0,1,1.17,0,8.36,8.36,0,0,1,6,2.54,9,9,0,0,1,2.37,7.49,8.74,8.74,0,0,1-2.37,5.1,8.55,8.55,0,0,1-4.84,2.55,8.32,8.32,0,0,1-7.21-2.55A9,9,0,0,1,175.28,268.36Zm148.27-17.84a8.44,8.44,0,0,1,6,2.55,9.12,9.12,0,0,1,0,12.51,8.39,8.39,0,0,1-11.86.2l-.2-.2a8.83,8.83,0,0,1-2.39-5.09,9,9,0,0,1,2.39-7.49,8.35,8.35,0,0,1,6-2.37Zm-153.11,5.1a20,20,0,0,0,0,27.52,18.33,18.33,0,0,0,13.25,5.68,18.1,18.1,0,0,0,9.15-2.55l55.67,58,1-.48,65-67.42a18.23,18.23,0,0,0,22.39-3.21,20,20,0,0,0,0-27.52A18.29,18.29,0,0,0,311,245q-.34.33-.66.66a20,20,0,0,0-3.11,23.24l-58.42,60.64L200.07,279a20.07,20.07,0,0,0-3.13-23.24,18.28,18.28,0,0,0-25.83-.65c-.23.22-.45.44-.67.67Z" transform="translate(-116.2 -120.02)"/></svg>